<?xml version="1.0" encoding="UTF-8"?>
<svg width="600" height="400" viewBox="0 0 600 400" xmlns="http://www.w3.org/2000/svg">
    <!-- Background Network Lines -->
    <g stroke="#ffffff" stroke-width="2" opacity="0.2">
        <line x1="0" y1="200" x2="600" y2="200"/>
        <line x1="300" y1="0" x2="300" y2="400"/>
        <circle cx="300" cy="200" r="150" fill="none"/>
    </g>
    
    <!-- Central Shield -->
    <g transform="translate(300,200)">
        <path d="M0,-100 L50,-50 L50,50 L0,100 L-50,50 L-50,-50 Z" 
              fill="#ffffff" opacity="0.9"/>
        <path d="M0,-80 L40,-40 L40,40 L0,80 L-40,40 L-40,-40 Z" 
              fill="#0d6efd" opacity="0.8"/>
        <circle cx="0" cy="0" r="30" fill="#ffffff"/>
    </g>
    
    <!-- Connection Points -->
    <g fill="#ffffff">
        <circle cx="100" cy="100" r="10"/>
        <circle cx="500" cy="100" r="10"/>
        <circle cx="100" cy="300" r="10"/>
        <circle cx="500" cy="300" r="10"/>
    </g>
    
    <!-- Connection Lines -->
    <g stroke="#ffffff" stroke-width="3">
        <line x1="100" y1="100" x2="300" y2="200"/>
        <line x1="500" y1="100" x2="300" y2="200"/>
        <line x1="100" y1="300" x2="300" y2="200"/>
        <line x1="500" y1="300" x2="300" y2="200"/>
    </g>
</svg> 